# Blender 3.3.0
# www.blender.org
o Mouth.001
v 0.000000 1.000000 0.000000
v -0.195090 0.980785 0.000000
v -0.382683 0.923880 0.000000
v -0.555570 0.831470 0.000000
v -0.707107 0.707107 0.000000
v -0.831470 0.555570 0.000000
v -0.923880 0.382683 0.000000
v -0.980785 0.195090 0.000000
v -1.000000 0.000000 0.000000
v -0.980785 -0.195090 -0.000000
v -0.923880 -0.382683 -0.000000
v -0.831470 -0.555570 -0.000000
v -0.707107 -0.707107 -0.000000
v -0.555570 -0.831470 -0.000000
v -0.382683 -0.923880 -0.000000
v -0.195090 -0.980785 -0.000000
v 0.000000 -1.000000 -0.000000
v 0.195090 -0.980785 -0.000000
v 0.382683 -0.923880 -0.000000
v 0.555570 -0.831470 -0.000000
v 0.707107 -0.707107 -0.000000
v 0.831470 -0.555570 -0.000000
v 0.923880 -0.382683 -0.000000
v 0.980785 -0.195090 -0.000000
v 1.000000 0.000000 0.000000
v 0.980785 0.195090 0.000000
v 0.923880 0.382683 0.000000
v 0.831470 0.555570 0.000000
v 0.707107 0.707107 0.000000
v 0.555570 0.831470 0.000000
v 0.382683 0.923880 0.000000
v 0.195090 0.980785 0.000000
v 0.000000 1.000000 -0.210995
v -0.195090 0.980785 -0.210995
v -0.382683 0.923880 -0.210995
v -0.555570 0.831470 -0.210995
v -0.707107 0.707107 -0.210995
v -0.831470 0.555570 -0.210995
v -0.923880 0.382683 -0.210995
v -0.980785 0.195090 -0.210995
v -1.000000 0.000000 -0.210995
v -0.980785 -0.195090 -0.210995
v -0.923880 -0.382683 -0.210995
v -0.831470 -0.555570 -0.210995
v -0.707107 -0.707107 -0.210995
v -0.555570 -0.831470 -0.210995
v -0.382683 -0.923880 -0.210995
v -0.195090 -0.980785 -0.210995
v 0.000000 -1.000000 -0.210995
v 0.195090 -0.980785 -0.210995
v 0.382683 -0.923880 -0.210995
v 0.555570 -0.831470 -0.210995
v 0.707107 -0.707107 -0.210995
v 0.831470 -0.555570 -0.210995
v 0.923880 -0.382683 -0.210995
v 0.980785 -0.195090 -0.210995
v 1.000000 0.000000 -0.210995
v 0.980785 0.195090 -0.210995
v 0.923880 0.382683 -0.210995
v 0.831470 0.555570 -0.210995
v 0.707107 0.707107 -0.210995
v 0.555570 0.831470 -0.210995
v 0.382683 0.923880 -0.210995
v 0.195090 0.980785 -0.210995
v 0.000000 0.902154 -0.190350
v -0.176002 0.884820 -0.190350
v -0.345240 0.833482 -0.190350
v -0.501210 0.750114 -0.190350
v -0.637919 0.637919 -0.190350
v -0.750114 0.501210 -0.190350
v -0.833482 0.345240 -0.190350
v -0.884820 0.176002 -0.190350
v -0.902154 0.000000 -0.190350
v -0.884820 -0.176002 -0.190350
v -0.833482 -0.345240 -0.190350
v -0.750114 -0.501210 -0.190350
v -0.637919 -0.637919 -0.190350
v -0.501210 -0.750114 -0.190350
v -0.345240 -0.833482 -0.190350
v -0.176002 -0.884820 -0.190350
v 0.000000 -0.902154 -0.190350
v 0.176002 -0.884820 -0.190350
v 0.345240 -0.833482 -0.190350
v 0.501210 -0.750114 -0.190350
v 0.637919 -0.637919 -0.190350
v 0.750114 -0.501210 -0.190350
v 0.833482 -0.345240 -0.190350
v 0.884820 -0.176002 -0.190350
v 0.902154 0.000000 -0.190350
v 0.884820 0.176002 -0.190350
v 0.833482 0.345240 -0.190350
v 0.750114 0.501210 -0.190350
v 0.637919 0.637919 -0.190350
v 0.501210 0.750114 -0.190350
v 0.345240 0.833482 -0.190350
v 0.176002 0.884820 -0.190350
v -0.195090 0.980785 -0.210995
v 0.000000 1.000000 -0.210995
v -0.382683 0.923880 -0.210995
v -0.555570 0.831470 -0.210995
v -0.707107 0.707107 -0.210995
v -0.831470 0.555570 -0.210995
v -0.923880 0.382683 -0.210995
v -0.980785 0.195090 -0.210995
v -1.000000 0.000000 -0.210995
v -0.980785 -0.195090 -0.210995
v -0.923880 -0.382683 -0.210995
v -0.831470 -0.555570 -0.210995
v -0.707107 -0.707107 -0.210995
v -0.555570 -0.831470 -0.210995
v -0.382683 -0.923880 -0.210995
v -0.195090 -0.980785 -0.210995
v 0.000000 -1.000000 -0.210995
v 0.195090 -0.980785 -0.210995
v 0.382683 -0.923880 -0.210995
v 0.555570 -0.831470 -0.210995
v 0.707107 -0.707107 -0.210995
v 0.831470 -0.555570 -0.210995
v 0.923880 -0.382683 -0.210995
v 0.980785 -0.195090 -0.210995
v 1.000000 0.000000 -0.210995
v 0.980785 0.195090 -0.210995
v 0.923880 0.382683 -0.210995
v 0.831470 0.555570 -0.210995
v 0.707107 0.707107 -0.210995
v 0.555570 0.831470 -0.210995
v 0.382683 0.923880 -0.210995
v 0.195090 0.980785 -0.210995
v -0.008461 0.932340 0.000000
v -0.209838 0.846217 0.000000
v -0.401302 0.725726 0.000000
v -0.575496 0.575496 0.000000
v -0.725726 0.401302 0.000000
v -0.846217 0.209838 0.000000
v -0.932340 0.008461 0.000000
v 0.185234 0.841326 0.000000
v -0.017181 0.724287 0.000000
v -0.216781 0.577261 0.000000
v -0.405897 0.405897 0.000000
v -0.577261 0.216781 0.000000
v -0.724287 0.017181 0.000000
v -0.841326 -0.185234 -0.000000
v 0.376452 0.713338 0.000000
v 0.184229 0.566432 0.000000
v -0.013713 0.396396 0.000000
v -0.209766 0.209766 0.000000
v -0.396396 0.013713 0.000000
v -0.566432 -0.184229 -0.000000
v -0.713338 -0.376452 -0.000000
v 0.555570 0.555570 0.000000
v 0.382683 0.382683 0.000000
v 0.195090 0.195090 0.000000
v 0.000000 0.000000 0.000000
v -0.195090 -0.195090 -0.000000
v -0.382683 -0.382683 -0.000000
v -0.555570 -0.555570 -0.000000
v 0.713338 0.376452 0.000000
v 0.566432 0.184229 0.000000
v 0.396396 -0.013713 -0.000000
v 0.209766 -0.209766 -0.000000
v 0.013713 -0.396396 -0.000000
v -0.184229 -0.566432 -0.000000
v -0.376452 -0.713338 -0.000000
v 0.841326 0.185234 0.000000
v 0.724287 -0.017181 -0.000000
v 0.577261 -0.216781 -0.000000
v 0.405897 -0.405897 -0.000000
v 0.216781 -0.577261 -0.000000
v 0.017181 -0.724287 -0.000000
v -0.185234 -0.841326 -0.000000
v 0.932340 -0.008461 -0.000000
v 0.846217 -0.209838 -0.000000
v 0.725726 -0.401302 -0.000000
v 0.575496 -0.575496 -0.000000
v 0.401302 -0.725726 -0.000000
v 0.209838 -0.846217 -0.000000
v 0.008461 -0.932340 -0.000000
vn 0.2903 -0.9569 -0.0000
vn -0.7730 0.6344 -0.0000
vn 0.0980 0.9952 -0.0000
vn 0.4714 -0.8819 -0.0000
vn -0.8819 0.4714 -0.0000
vn 0.6344 -0.7730 -0.0000
vn -0.9569 0.2903 -0.0000
vn 0.7730 -0.6344 -0.0000
vn -0.9952 0.0980 -0.0000
vn 0.8819 -0.4714 -0.0000
vn -0.9952 -0.0980 -0.0000
vn 0.9569 -0.2903 -0.0000
vn -0.9569 -0.2903 -0.0000
vn 0.9952 -0.0980 -0.0000
vn -0.8819 -0.4714 -0.0000
vn 0.9952 0.0980 -0.0000
vn -0.7730 -0.6344 -0.0000
vn 0.9569 0.2903 -0.0000
vn -0.6344 -0.7730 -0.0000
vn 0.8819 0.4714 -0.0000
vn -0.4714 -0.8819 -0.0000
vn -0.0980 0.9952 -0.0000
vn 0.7730 0.6344 -0.0000
vn -0.2903 -0.9569 -0.0000
vn -0.2903 0.9569 -0.0000
vn 0.6344 0.7730 -0.0000
vn -0.0980 -0.9952 -0.0000
vn -0.4714 0.8819 -0.0000
vn 0.4714 0.8819 -0.0000
vn 0.0980 -0.9952 -0.0000
vn -0.6344 0.7730 -0.0000
vn 0.2903 0.9569 -0.0000
vn 0.0978 0.1829 -0.9783
vn 0.0203 -0.2064 -0.9783
vn -0.1603 -0.1316 -0.9783
vn 0.0602 0.1985 -0.9783
vn 0.0602 -0.1985 -0.9783
vn -0.1316 -0.1603 -0.9783
vn 0.0203 0.2064 -0.9783
vn 0.0978 -0.1829 -0.9783
vn -0.0978 -0.1829 -0.9783
vn -0.0203 0.2064 -0.9783
vn 0.1316 -0.1603 -0.9783
vn -0.0602 -0.1985 -0.9783
vn -0.0602 0.1985 -0.9783
vn 0.1603 -0.1316 -0.9783
vn -0.0203 -0.2064 -0.9783
vn -0.0978 0.1829 -0.9783
vn 0.1829 -0.0978 -0.9783
vn -0.1316 0.1603 -0.9783
vn 0.1985 -0.0602 -0.9783
vn -0.1603 0.1316 -0.9783
vn 0.2064 -0.0203 -0.9783
vn -0.1829 0.0978 -0.9783
vn 0.2064 0.0203 -0.9783
vn -0.1985 0.0602 -0.9783
vn 0.1985 0.0602 -0.9783
vn -0.2064 0.0203 -0.9783
vn 0.1829 0.0978 -0.9783
vn -0.2064 -0.0203 -0.9783
vn 0.1603 0.1316 -0.9783
vn -0.1985 -0.0602 -0.9783
vn 0.1316 0.1603 -0.9783
vn -0.1829 -0.0978 -0.9783
vn -0.0000 -0.0000 1.0000
vt 0.000000 0.000000
vt 0.000000 0.000000
vt 0.000000 0.000000
vt 0.000000 0.000000
vt 0.000000 0.000000
vt 0.000000 0.000000
vt 0.000000 0.000000
vt 0.000000 0.000000
vt 0.000000 0.000000
vt 0.000000 0.000000
vt 0.000000 0.000000
vt 0.000000 0.000000
vt 0.000000 0.000000
vt 0.000000 0.000000
vt 0.000000 0.000000
vt 0.000000 0.000000
vt 0.000000 0.000000
vt 0.000000 0.000000
vt 0.000000 0.000000
vt 0.000000 0.000000
vt 0.000000 0.000000
vt 0.000000 0.000000
vt 0.000000 0.000000
vt 0.000000 0.000000
vt 0.000000 0.000000
vt 0.000000 0.000000
vt 0.000000 0.000000
vt 0.000000 0.000000
vt 0.000000 0.000000
vt 0.000000 0.000000
vt 0.000000 0.000000
vt 0.000000 0.000000
vt 0.000000 0.000000
vt 0.000000 0.000000
vt 0.000000 0.000000
vt 0.000000 0.000000
vt 0.000000 0.000000
vt 0.000000 0.000000
vt 0.000000 0.000000
vt 0.000000 0.000000
vt 0.000000 0.000000
vt 0.000000 0.000000
vt 0.000000 0.000000
vt 0.000000 0.000000
vt 0.000000 0.000000
vt 0.000000 0.000000
vt 0.000000 0.000000
vt 0.000000 0.000000
vt 0.000000 0.000000
vt 0.000000 0.000000
vt 0.000000 0.000000
vt 0.000000 0.000000
vt 0.000000 0.000000
vt 0.000000 0.000000
vt 0.000000 0.000000
vt 0.000000 0.000000
vt 0.000000 0.000000
vt 0.000000 0.000000
vt 0.000000 0.000000
vt 0.000000 0.000000
vt 0.000000 0.000000
vt 0.000000 0.000000
vt 0.000000 0.000000
vt 0.000000 0.000000
vt 0.000000 0.000000
vt 0.000000 0.000000
vt 0.000000 0.000000
vt 0.000000 0.000000
vt 0.000000 0.000000
vt 0.000000 0.000000
vt 0.000000 0.000000
vt 0.000000 0.000000
vt 0.000000 0.000000
vt 0.000000 0.000000
vt 0.000000 0.000000
vt 0.000000 0.000000
vt 0.000000 0.000000
vt 0.000000 0.000000
vt 0.000000 0.000000
vt 0.000000 0.000000
vt 0.000000 0.000000
vt 0.000000 0.000000
vt 0.000000 0.000000
vt 0.000000 0.000000
vt 0.000000 0.000000
vt 0.000000 0.000000
vt 0.000000 0.000000
vt 0.000000 0.000000
vt 0.000000 0.000000
vt 0.000000 0.000000
vt 0.000000 0.000000
vt 0.000000 0.000000
vt 0.000000 0.000000
vt 0.000000 0.000000
vt 0.000000 0.000000
vt 0.000000 0.000000
vt 0.000000 0.000000
vt 0.000000 0.000000
vt 0.000000 0.000000
vt 0.000000 0.000000
vt 0.000000 0.000000
vt 0.000000 0.000000
vt 0.000000 0.000000
vt 0.000000 0.000000
vt 0.000000 0.000000
vt 0.000000 0.000000
vt 0.000000 0.000000
vt 0.000000 0.000000
vt 0.000000 0.000000
vt 0.000000 0.000000
vt 0.000000 0.000000
vt 0.000000 0.000000
vt 0.000000 0.000000
vt 0.000000 0.000000
vt 0.000000 0.000000
vt 0.000000 0.000000
vt 0.000000 0.000000
vt 0.000000 0.000000
vt 0.000000 0.000000
vt 0.000000 0.000000
vt 0.000000 0.000000
vt 0.000000 0.000000
vt 0.000000 0.000000
vt 0.000000 0.000000
vt 0.000000 0.000000
vt 0.000000 0.000000
vt 0.000000 0.000000
vt 0.000000 0.000000
vt 0.000000 0.000000
vt 0.000000 0.000000
vt 0.000000 0.000000
vt 0.000000 0.000000
vt 0.000000 0.000000
vt 0.000000 0.000000
vt 0.000000 0.000000
vt 0.000000 0.000000
vt 0.000000 0.000000
vt 0.000000 0.000000
vt 0.000000 0.000000
vt 0.000000 0.000000
vt 0.000000 0.000000
vt 0.000000 0.000000
vt 0.000000 0.000000
vt 0.000000 0.000000
vt 0.000000 0.000000
vt 0.000000 0.000000
vt 0.000000 0.000000
vt 0.000000 0.000000
vt 0.000000 0.000000
vt 0.000000 0.000000
vt 0.000000 0.000000
vt 0.000000 0.000000
vt 0.000000 0.000000
vt 0.000000 0.000000
vt 0.000000 0.000000
vt 0.000000 0.000000
vt 0.000000 0.000000
vt 0.000000 0.000000
vt 0.000000 0.000000
vt 0.000000 0.000000
vt 0.000000 0.000000
vt 0.000000 0.000000
vt 0.000000 0.000000
vt 0.000000 0.000000
vt 0.000000 0.000000
vt 0.000000 0.000000
vt 0.000000 0.000000
vt 0.000000 0.000000
vt 0.000000 0.000000
vt 0.000000 0.000000
vt 0.000000 0.000000
vt 0.000000 0.000000
vt 0.000000 0.000000
vt 0.000000 0.000000
vt 0.000000 0.000000
vt 0.000000 0.000000
vt 0.000000 0.000000
s 0
f 18/18/1 115/115/1 19/19/1
f 5/5/2 102/102/2 6/6/2
f 32/32/3 98/98/3 1/1/3
f 19/19/4 116/116/4 20/20/4
f 6/6/5 103/103/5 7/7/5
f 20/20/6 117/117/6 21/21/6
f 7/7/7 104/104/7 8/8/7
f 21/21/8 118/118/8 22/22/8
f 8/8/9 105/105/9 9/9/9
f 22/22/10 119/119/10 23/23/10
f 10/10/11 105/105/11 106/106/11
f 23/23/12 120/120/12 24/24/12
f 10/10/13 107/107/13 11/11/13
f 24/24/14 121/121/14 25/25/14
f 11/11/15 108/108/15 12/12/15
f 25/25/16 122/122/16 26/26/16
f 12/12/17 109/109/17 13/13/17
f 26/26/18 123/123/18 27/27/18
f 13/13/19 110/110/19 14/14/19
f 27/27/20 124/124/20 28/28/20
f 14/14/21 111/111/21 15/15/21
f 1/1/22 97/97/22 2/2/22
f 28/28/23 125/125/23 29/29/23
f 15/15/24 112/112/24 16/16/24
f 2/2/25 99/99/25 3/3/25
f 29/29/26 126/126/26 30/30/26
f 16/16/27 113/113/27 17/17/27
f 3/3/28 100/100/28 4/4/28
f 30/30/29 127/127/29 31/31/29
f 17/17/30 114/114/30 18/18/30
f 4/4/31 101/101/31 5/5/31
f 31/31/32 128/128/32 32/32/32
f 46/46/33 79/79/33 47/47/33
f 34/34/34 65/65/34 66/66/34
f 60/60/35 93/93/35 61/61/35
f 47/47/36 80/80/36 48/48/36
f 34/34/37 67/67/37 35/35/37
f 61/61/38 94/94/38 62/62/38
f 48/48/39 81/81/39 49/49/39
f 35/35/40 68/68/40 36/36/40
f 62/62/41 95/95/41 63/63/41
f 50/50/42 81/81/42 82/82/42
f 36/36/43 69/69/43 37/37/43
f 63/63/44 96/96/44 64/64/44
f 50/50/45 83/83/45 51/51/45
f 37/37/46 70/70/46 38/38/46
f 64/64/47 65/65/47 33/33/47
f 51/51/48 84/84/48 52/52/48
f 38/38/49 71/71/49 39/39/49
f 52/52/50 85/85/50 53/53/50
f 40/40/51 71/71/51 72/72/51
f 53/53/52 86/86/52 54/54/52
f 40/40/53 73/73/53 41/41/53
f 54/54/54 87/87/54 55/55/54
f 42/42/55 73/73/55 74/74/55
f 55/55/56 88/88/56 56/56/56
f 43/43/57 74/74/57 75/75/57
f 56/56/58 89/89/58 57/57/58
f 43/43/59 76/76/59 44/44/59
f 58/58/60 89/89/60 90/90/60
f 44/44/61 77/77/61 45/45/61
f 58/58/62 91/91/62 59/59/62
f 45/45/63 78/78/63 46/46/63
f 59/59/64 92/92/64 60/60/64
f 33/33/65 97/97/65 98/98/65
f 34/34/65 99/99/65 97/97/65
f 35/35/65 100/100/65 99/99/65
f 36/36/65 101/101/65 100/100/65
f 37/37/65 102/102/65 101/101/65
f 38/38/65 103/103/65 102/102/65
f 39/39/65 104/104/65 103/103/65
f 40/40/65 105/105/65 104/104/65
f 41/41/65 106/106/65 105/105/65
f 42/42/65 107/107/65 106/106/65
f 43/43/65 108/108/65 107/107/65
f 44/44/65 109/109/65 108/108/65
f 45/45/65 110/110/65 109/109/65
f 46/46/65 111/111/65 110/110/65
f 47/47/65 112/112/65 111/111/65
f 48/48/65 113/113/65 112/112/65
f 49/49/65 114/114/65 113/113/65
f 50/50/65 115/115/65 114/114/65
f 51/51/65 116/116/65 115/115/65
f 52/52/65 117/117/65 116/116/65
f 53/53/65 118/118/65 117/117/65
f 54/54/65 119/119/65 118/118/65
f 55/55/65 120/120/65 119/119/65
f 56/56/65 121/121/65 120/120/65
f 57/57/65 122/122/65 121/121/65
f 58/58/65 123/123/65 122/122/65
f 59/59/65 124/124/65 123/123/65
f 60/60/65 125/125/65 124/124/65
f 61/61/65 126/126/65 125/125/65
f 62/62/65 127/127/65 126/126/65
f 63/63/65 128/128/65 127/127/65
f 64/64/65 98/98/65 128/128/65
f 129/129/65 1/1/65 2/2/65
f 136/136/65 32/32/65 129/129/65
f 143/143/65 31/31/65 136/136/65
f 150/150/65 30/30/65 143/143/65
f 150/150/65 28/28/65 29/29/65
f 157/157/65 27/27/65 28/28/65
f 164/164/65 26/26/65 27/27/65
f 171/171/65 25/25/65 26/26/65
f 130/130/65 2/2/65 3/3/65
f 137/137/65 129/129/65 130/130/65
f 144/144/65 136/136/65 137/137/65
f 151/151/65 143/143/65 144/144/65
f 151/151/65 157/157/65 150/150/65
f 158/158/65 164/164/65 157/157/65
f 165/165/65 171/171/65 164/164/65
f 172/172/65 24/24/65 171/171/65
f 131/131/65 3/3/65 4/4/65
f 138/138/65 130/130/65 131/131/65
f 145/145/65 137/137/65 138/138/65
f 152/152/65 144/144/65 145/145/65
f 152/152/65 158/158/65 151/151/65
f 159/159/65 165/165/65 158/158/65
f 166/166/65 172/172/65 165/165/65
f 173/173/65 23/23/65 172/172/65
f 132/132/65 4/4/65 5/5/65
f 139/139/65 131/131/65 132/132/65
f 146/146/65 138/138/65 139/139/65
f 153/153/65 145/145/65 146/146/65
f 153/153/65 159/159/65 152/152/65
f 160/160/65 166/166/65 159/159/65
f 167/167/65 173/173/65 166/166/65
f 174/174/65 22/22/65 173/173/65
f 6/6/65 132/132/65 5/5/65
f 133/133/65 139/139/65 132/132/65
f 140/140/65 146/146/65 139/139/65
f 147/147/65 153/153/65 146/146/65
f 161/161/65 153/153/65 154/154/65
f 168/168/65 160/160/65 161/161/65
f 175/175/65 167/167/65 168/168/65
f 20/20/65 174/174/65 175/175/65
f 7/7/65 133/133/65 6/6/65
f 134/134/65 140/140/65 133/133/65
f 141/141/65 147/147/65 140/140/65
f 148/148/65 154/154/65 147/147/65
f 162/162/65 154/154/65 155/155/65
f 169/169/65 161/161/65 162/162/65
f 176/176/65 168/168/65 169/169/65
f 19/19/65 175/175/65 176/176/65
f 8/8/65 134/134/65 7/7/65
f 135/135/65 141/141/65 134/134/65
f 142/142/65 148/148/65 141/141/65
f 149/149/65 155/155/65 148/148/65
f 163/163/65 155/155/65 156/156/65
f 170/170/65 162/162/65 163/163/65
f 177/177/65 169/169/65 170/170/65
f 18/18/65 176/176/65 177/177/65
f 9/9/65 135/135/65 8/8/65
f 10/10/65 142/142/65 135/135/65
f 11/11/65 149/149/65 142/142/65
f 12/12/65 156/156/65 149/149/65
f 14/14/65 156/156/65 13/13/65
f 15/15/65 163/163/65 14/14/65
f 16/16/65 170/170/65 15/15/65
f 17/17/65 177/177/65 16/16/65
f 18/18/1 114/114/1 115/115/1
f 5/5/2 101/101/2 102/102/2
f 32/32/3 128/128/3 98/98/3
f 19/19/4 115/115/4 116/116/4
f 6/6/5 102/102/5 103/103/5
f 20/20/6 116/116/6 117/117/6
f 7/7/7 103/103/7 104/104/7
f 21/21/8 117/117/8 118/118/8
f 8/8/9 104/104/9 105/105/9
f 22/22/10 118/118/10 119/119/10
f 10/10/11 9/9/11 105/105/11
f 23/23/12 119/119/12 120/120/12
f 10/10/13 106/106/13 107/107/13
f 24/24/14 120/120/14 121/121/14
f 11/11/15 107/107/15 108/108/15
f 25/25/16 121/121/16 122/122/16
f 12/12/17 108/108/17 109/109/17
f 26/26/18 122/122/18 123/123/18
f 13/13/19 109/109/19 110/110/19
f 27/27/20 123/123/20 124/124/20
f 14/14/21 110/110/21 111/111/21
f 1/1/22 98/98/22 97/97/22
f 28/28/23 124/124/23 125/125/23
f 15/15/24 111/111/24 112/112/24
f 2/2/25 97/97/25 99/99/25
f 29/29/26 125/125/26 126/126/26
f 16/16/27 112/112/27 113/113/27
f 3/3/28 99/99/28 100/100/28
f 30/30/29 126/126/29 127/127/29
f 17/17/30 113/113/30 114/114/30
f 4/4/31 100/100/31 101/101/31
f 31/31/32 127/127/32 128/128/32
f 46/46/33 78/78/33 79/79/33
f 34/34/34 33/33/34 65/65/34
f 60/60/35 92/92/35 93/93/35
f 47/47/36 79/79/36 80/80/36
f 34/34/37 66/66/37 67/67/37
f 61/61/38 93/93/38 94/94/38
f 48/48/39 80/80/39 81/81/39
f 35/35/40 67/67/40 68/68/40
f 62/62/41 94/94/41 95/95/41
f 50/50/42 49/49/42 81/81/42
f 36/36/43 68/68/43 69/69/43
f 63/63/44 95/95/44 96/96/44
f 50/50/45 82/82/45 83/83/45
f 37/37/46 69/69/46 70/70/46
f 64/64/47 96/96/47 65/65/47
f 51/51/48 83/83/48 84/84/48
f 38/38/49 70/70/49 71/71/49
f 52/52/50 84/84/50 85/85/50
f 40/40/51 39/39/51 71/71/51
f 53/53/52 85/85/52 86/86/52
f 40/40/53 72/72/53 73/73/53
f 54/54/54 86/86/54 87/87/54
f 42/42/55 41/41/55 73/73/55
f 55/55/56 87/87/56 88/88/56
f 43/43/57 42/42/57 74/74/57
f 56/56/58 88/88/58 89/89/58
f 43/43/59 75/75/59 76/76/59
f 58/58/60 57/57/60 89/89/60
f 44/44/61 76/76/61 77/77/61
f 58/58/62 90/90/62 91/91/62
f 45/45/63 77/77/63 78/78/63
f 59/59/64 91/91/64 92/92/64
f 33/33/65 34/34/65 97/97/65
f 34/34/65 35/35/65 99/99/65
f 35/35/65 36/36/65 100/100/65
f 36/36/65 37/37/65 101/101/65
f 37/37/65 38/38/65 102/102/65
f 38/38/65 39/39/65 103/103/65
f 39/39/65 40/40/65 104/104/65
f 40/40/65 41/41/65 105/105/65
f 41/41/65 42/42/65 106/106/65
f 42/42/65 43/43/65 107/107/65
f 43/43/65 44/44/65 108/108/65
f 44/44/65 45/45/65 109/109/65
f 45/45/65 46/46/65 110/110/65
f 46/46/65 47/47/65 111/111/65
f 47/47/65 48/48/65 112/112/65
f 48/48/65 49/49/65 113/113/65
f 49/49/65 50/50/65 114/114/65
f 50/50/65 51/51/65 115/115/65
f 51/51/65 52/52/65 116/116/65
f 52/52/65 53/53/65 117/117/65
f 53/53/65 54/54/65 118/118/65
f 54/54/65 55/55/65 119/119/65
f 55/55/65 56/56/65 120/120/65
f 56/56/65 57/57/65 121/121/65
f 57/57/65 58/58/65 122/122/65
f 58/58/65 59/59/65 123/123/65
f 59/59/65 60/60/65 124/124/65
f 60/60/65 61/61/65 125/125/65
f 61/61/65 62/62/65 126/126/65
f 62/62/65 63/63/65 127/127/65
f 63/63/65 64/64/65 128/128/65
f 64/64/65 33/33/65 98/98/65
f 129/129/65 32/32/65 1/1/65
f 136/136/65 31/31/65 32/32/65
f 143/143/65 30/30/65 31/31/65
f 150/150/65 29/29/65 30/30/65
f 150/150/65 157/157/65 28/28/65
f 157/157/65 164/164/65 27/27/65
f 164/164/65 171/171/65 26/26/65
f 171/171/65 24/24/65 25/25/65
f 130/130/65 129/129/65 2/2/65
f 137/137/65 136/136/65 129/129/65
f 144/144/65 143/143/65 136/136/65
f 151/151/65 150/150/65 143/143/65
f 151/151/65 158/158/65 157/157/65
f 158/158/65 165/165/65 164/164/65
f 165/165/65 172/172/65 171/171/65
f 172/172/65 23/23/65 24/24/65
f 131/131/65 130/130/65 3/3/65
f 138/138/65 137/137/65 130/130/65
f 145/145/65 144/144/65 137/137/65
f 152/152/65 151/151/65 144/144/65
f 152/152/65 159/159/65 158/158/65
f 159/159/65 166/166/65 165/165/65
f 166/166/65 173/173/65 172/172/65
f 173/173/65 22/22/65 23/23/65
f 132/132/65 131/131/65 4/4/65
f 139/139/65 138/138/65 131/131/65
f 146/146/65 145/145/65 138/138/65
f 153/153/65 152/152/65 145/145/65
f 153/153/65 160/160/65 159/159/65
f 160/160/65 167/167/65 166/166/65
f 167/167/65 174/174/65 173/173/65
f 174/174/65 21/21/65 22/22/65
f 6/6/65 133/133/65 132/132/65
f 133/133/65 140/140/65 139/139/65
f 140/140/65 147/147/65 146/146/65
f 147/147/65 154/154/65 153/153/65
f 161/161/65 160/160/65 153/153/65
f 168/168/65 167/167/65 160/160/65
f 175/175/65 174/174/65 167/167/65
f 20/20/65 21/21/65 174/174/65
f 7/7/65 134/134/65 133/133/65
f 134/134/65 141/141/65 140/140/65
f 141/141/65 148/148/65 147/147/65
f 148/148/65 155/155/65 154/154/65
f 162/162/65 161/161/65 154/154/65
f 169/169/65 168/168/65 161/161/65
f 176/176/65 175/175/65 168/168/65
f 19/19/65 20/20/65 175/175/65
f 8/8/65 135/135/65 134/134/65
f 135/135/65 142/142/65 141/141/65
f 142/142/65 149/149/65 148/148/65
f 149/149/65 156/156/65 155/155/65
f 163/163/65 162/162/65 155/155/65
f 170/170/65 169/169/65 162/162/65
f 177/177/65 176/176/65 169/169/65
f 18/18/65 19/19/65 176/176/65
f 9/9/65 10/10/65 135/135/65
f 10/10/65 11/11/65 142/142/65
f 11/11/65 12/12/65 149/149/65
f 12/12/65 13/13/65 156/156/65
f 14/14/65 163/163/65 156/156/65
f 15/15/65 170/170/65 163/163/65
f 16/16/65 177/177/65 170/170/65
f 17/17/65 18/18/65 177/177/65
