# Blender 3.3.0
# www.blender.org
o Rock
v 39.455215 1.000000 -1.000000
v 38.318542 0.458043 1.000000
v 38.757229 1.000000 0.584153
v 38.372108 0.514816 1.000000
v 40.318542 -0.548291 -1.000000
v 40.135178 -0.776629 -1.000000
v 40.002838 -1.000000 -0.570425
v 40.318542 -0.821001 1.000000
v 40.205132 -0.962227 1.000000
v 40.156448 -1.000000 0.832416
v 39.240536 1.000000 -1.000000
v 38.318542 0.777015 -0.722251
v 38.524788 1.000000 -0.745979
v 40.308582 0.258540 -1.000000
v 39.855545 1.000000 -0.714744
v 39.982788 0.085899 1.000000
v 39.618313 1.000000 0.421913
v 40.318542 0.239776 -1.000000
v 40.318542 -0.546746 1.000000
v 38.318542 0.075482 1.000000
v 38.813389 -0.916369 1.000000
v 38.758892 -1.000000 0.636439
v 39.634930 -0.812006 -1.000000
v 38.318542 -0.118224 -0.920861
v 38.526886 -0.141648 -1.000000
v 39.253044 -1.000000 -0.676859
v 38.503819 -1.000000 -0.327311
v 38.318542 -0.703912 -0.469203
vn 0.4826 0.5554 -0.6772
vn 0.7769 -0.6239 -0.0851
vn 0.8687 0.4610 0.1813
vn -0.7215 0.6808 0.1261
vn -0.0000 -1.0000 -0.0000
vn -0.3466 -0.5728 -0.7428
vn 1.0000 -0.0000 -0.0000
vn 0.1520 0.5709 0.8068
vn -0.0000 1.0000 -0.0000
vn -0.0000 -0.0000 -1.0000
vn -0.0321 -0.9730 0.2286
vn -0.0000 -0.0000 1.0000
vn -0.8707 -0.4344 0.2305
vn -1.0000 -0.0000 -0.0000
vn -0.3274 0.2046 -0.9225
vn 0.0632 -0.8933 -0.4450
vt 0.732916 0.500000
vt 0.625000 0.392084
vt 0.557255 1.000000
vt 0.557255 0.000000
vt 0.625000 0.797635
vt 0.820164 0.698019
vt 0.564352 0.098059
vt 0.564352 0.993304
vt 0.431464 0.500000
vt 0.402921 0.477079
vt 0.335537 0.553697
vt 0.397375 0.750000
vt 0.379722 0.764176
vt 0.354738 0.729052
vt 0.375000 0.676884
vt 0.625000 0.365249
vt 0.759751 0.500000
vt 0.597127 0.215281
vt 0.849219 0.531753
vt 0.625000 0.354802
vt 0.532318 0.498755
vt 0.625000 0.477782
vt 0.682875 0.535657
vt 0.510737 0.637542
vt 0.510737 0.791969
vt 0.625000 0.722416
vt 0.712529 0.677739
vt 0.529972 0.500000
vt 0.431657 0.750000
vt 0.509435 1.000000
vt 0.509435 0.000000
vt 0.385454 0.938144
vt 0.375000 0.202603
vt 0.180044 0.704555
vt 0.398499 0.414548
vt 0.485222 0.240108
vt 0.482294 0.276043
vt 0.512744 0.306493
vt 0.241813 0.540393
vt 0.148160 0.584086
vt 0.412011 0.183650
s 0
f 15/22/1 14/21/1 1/2/1
f 9/13/2 7/11/2 5/9/2
f 14/21/3 17/27/3 19/29/3
f 12/18/4 4/7/4 3/5/4
f 7/11/5 22/34/5 27/40/5
f 28/41/6 25/38/6 26/39/6
f 5/9/7 19/29/7 8/12/7
f 3/5/8 16/24/8 17/26/8
f 11/17/9 3/6/9 15/23/9
f 1/2/10 18/28/10 6/10/10
f 10/15/11 21/32/11 22/33/11
f 4/8/12 20/30/12 9/13/12
f 28/41/13 22/34/13 21/32/13
f 2/4/14 24/36/14 28/41/14
f 13/20/15 25/38/15 24/36/15
f 7/11/16 23/35/16 6/10/16
f 5/9/2 8/12/2 9/13/2
f 9/13/2 10/15/2 7/11/2
f 7/11/2 6/10/2 5/9/2
f 19/29/3 18/28/3 14/21/3
f 14/21/3 15/22/3 17/27/3
f 17/27/3 16/24/3 19/29/3
f 3/5/4 13/20/4 12/18/4
f 12/18/4 2/4/4 4/7/4
f 27/40/5 26/39/5 7/11/5
f 7/11/5 10/14/5 22/34/5
f 26/39/6 27/40/6 28/41/6
f 28/41/6 24/36/6 25/38/6
f 25/38/6 23/35/6 26/39/6
f 5/9/7 18/28/7 19/29/7
f 3/5/8 4/7/8 16/24/8
f 15/23/9 1/1/9 11/17/9
f 11/17/9 13/19/9 3/6/9
f 3/6/9 17/27/9 15/23/9
f 6/10/10 23/35/10 25/37/10
f 25/37/10 11/16/10 1/2/10
f 1/2/10 14/21/10 18/28/10
f 18/28/10 5/9/10 6/10/10
f 6/10/10 25/37/10 1/2/10
f 10/15/11 9/13/11 21/32/11
f 9/13/12 8/12/12 19/29/12
f 19/29/12 16/25/12 4/8/12
f 4/8/12 2/3/12 20/30/12
f 20/30/12 21/32/12 9/13/12
f 9/13/12 19/29/12 4/8/12
f 21/32/13 20/31/13 28/41/13
f 28/41/13 27/40/13 22/34/13
f 28/41/14 20/31/14 2/4/14
f 2/4/14 12/18/14 24/36/14
f 24/36/15 12/18/15 13/20/15
f 13/20/15 11/17/15 25/38/15
f 7/11/16 26/39/16 23/35/16
